Coordinates
version=1
nRows=19
nColumns=24
inDegrees=yes

Units are S.I. units (second, meters, Newtons, ...)
Angles are in degrees.

endheader
time	pelvis_tilt	pelvis_list	pelvis_rotation	pelvis_tx	pelvis_ty	pelvis_tz	hip_flexion_r	hip_adduction_r	hip_rotation_r	knee_angle_r	ankle_angle_r	subtalar_angle_r	mtp_angle_r	hip_flexion_l	hip_adduction_l	hip_rotation_l	knee_angle_l	ankle_angle_l	subtalar_angle_l	mtp_angle_l	lumbar_extension	lumbar_bending	lumbar_rotation
      0.74550000	     -7.33094239	      1.57392959	      0.98459024	     -0.38624575	      1.06501861	      0.33631385	     19.30934463	      1.75755571	     -0.61675694	    -19.88848771	      9.25221713	     -5.49404832	      4.80336758	     26.44500804	     -3.44833429	     -3.37392551	    -71.27425066	     11.04650821	     11.54349680	      1.73842179	     -6.50628167	      3.87325046	      2.50446544
      0.74966667	     -7.29312219	      1.66846605	      0.82662189	     -0.38116360	      1.06593715	      0.33690959	     18.83003652	      1.72993368	     -0.46173343	    -19.58435448	      9.35102123	     -5.44950088	      4.77920730	     26.86639964	     -3.44077069	     -3.51504182	    -70.80676321	     11.28343795	     11.82260540	      1.76086549	     -6.55136335	      3.72384337	      2.76950090
      0.75383333	     -7.27155565	      1.78284145	      0.65428743	     -0.37606666	      1.06680605	      0.33751900	     18.37431963	      1.68046426	     -0.30013973	    -19.29184708	      9.42383519	     -5.37693667	      4.76895575	     27.28685057	     -3.42317551	     -3.69333111	    -70.29540785	     11.50138416	     11.98976188	      1.77405314	     -6.55391180	      3.56433174	      2.86355655
      0.75800000	     -7.21343824	      1.88539480	      0.48589760	     -0.37099846	      1.06770126	      0.33813767	     17.87295094	      1.64469131	     -0.12749916	    -18.98115258	      9.51265958	     -5.35973882	      4.74245878	     27.66065189	     -3.41841331	     -3.85717668	    -69.74892586	     11.69145665	     12.17404525	      1.79683150	     -6.61437030	      3.39995111	      3.13767239
      0.76216667	     -7.22197549	      2.00432256	      0.30594748	     -0.36592016	      1.06844353	      0.33876259	     17.45587646	      1.58936112	      0.04835596	    -18.69494513	      9.58718277	     -5.29632726	      4.73269402	     28.09192489	     -3.40231142	     -4.04492037	    -69.16546469	     11.86392324	     12.27582847	      1.80791818	     -6.58146907	      3.23214193	      3.21920514
      0.76633333	     -7.17747837	      2.11608105	      0.13010608	     -0.36086985	      1.06924765	      0.33939264	     16.97458777	      1.54272529	      0.24044421	    -18.39040835	      9.67553175	     -5.30113870	      4.70428032	     28.45566245	     -3.39342395	     -4.22143142	    -68.54313547	     12.00642119	     12.38152544	      1.82932882	     -6.62479106	      3.05418681	      3.50109995
      0.77050000	     -7.17328362	      2.22021310	     -0.04954970	     -0.35581397	      1.06993540	      0.34002225	     16.54333706	      1.49973599	      0.42007326	    -18.09798832	      9.74555864	     -5.24332017	      4.69384070	     28.85485359	     -3.39781477	     -4.40605872	    -67.89865624	     12.14827644	     12.42268682	      1.83851416	     -6.60892775	      2.90184214	      3.57836092
      0.77466667	     -7.14697473	      2.34323218	     -0.23226840	     -0.35077888	      1.07063945	      0.34065189	     16.09195867	      1.43660154	      0.62168579	    -17.81044663	      9.83039922	     -5.23903375	      4.67742991	     29.21163610	     -3.38075252	     -4.59528956	    -67.20302075	     12.25592421	     12.45075821	      1.84904572	     -6.62803091	      2.72807432	      3.75086966
      0.77883333	     -7.13813492	      2.44116505	     -0.39844966	     -0.34574597	      1.07126191	      0.34125571	     15.65009051	      1.39527797	      0.81093233	    -17.50332068	      9.90617254	     -5.26376992	      4.64383119	     29.58649185	     -3.38175338	     -4.75555831	    -66.49098678	     12.33962121	     12.42856967	      1.86585591	     -6.62433855	      2.56005214	      4.02677908
      0.78300000	     -7.13822704	      2.55559444	     -0.57503015	     -0.34072096	      1.07183623	      0.34185962	     15.23232258	      1.33215817	      0.99272999	    -17.22374558	      9.98761758	     -5.22486894	      4.62875523	     29.95358851	     -3.37146618	     -4.93570181	    -65.73952569	     12.41741810	     12.37899102	      1.87289374	     -6.60406641	      2.40715507	      4.10968632
      0.78716667	     -7.11752714	      2.66451588	     -0.73709703	     -0.33571055	      1.07241160	      0.34245003	     14.78459100	      1.27122104	      1.17176684	    -16.92756223	     10.08092811	     -5.23363449	      4.59629961	     30.29031168	     -3.35659890	     -5.09327388	    -64.95691051	     12.45845006	     12.27718164	      1.88429850	     -6.61832265	      2.22458921	      4.33062320
      0.79133333	     -7.11760461	      2.75582048	     -0.89878843	     -0.33071405	      1.07288533	      0.34300973	     14.36602558	      1.22455523	      1.34774336	    -16.64461804	     10.16415244	     -5.22628228	      4.56262095	     30.64361108	     -3.35820799	     -5.24181515	    -64.15867877	     12.50188771	     12.16519849	      1.89454487	     -6.60591790	      2.08351290	      4.48327216
      0.79550000	     -7.12697352	      2.86945330	     -1.06210251	     -0.32571684	      1.07332663	      0.34356980	     13.96514510	      1.15105085	      1.51682477	    -16.37544771	     10.25599715	     -5.19655605	      4.54493474	     30.98710520	     -3.33484551	     -5.39792712	    -63.31363907	     12.52579774	     12.02121350	      1.89693135	     -6.57852985	      1.93015962	      4.56510409
      0.79966667	     -7.12884529	      2.96729618	     -1.21346268	     -0.32073742	      1.07373688	      0.34409054	     13.55290727	      1.08818926	      1.67623531	    -16.09905360	     10.35201442	     -5.18072615	      4.52433837	     31.31680886	     -3.31672179	     -5.52850046	    -62.44668418	     12.52287750	     11.83070711	      1.89755629	     -6.56703128	      1.78429943	      4.68787421
      0.80383333	     -7.13582111	      3.06753241	     -1.35773497	     -0.31576736	      1.07409512	      0.34459434	     13.14963111	      1.01871128	      1.82740433	    -15.82843982	     10.45153941	     -5.15737338	      4.50582088	     31.64138720	     -3.28890198	     -5.64827346	    -61.55204725	     12.50573519	     11.61762344	      1.89593116	     -6.55187396	      1.63401960	      4.79458038
      0.80800000	     -7.13410159	      3.15479624	     -1.49596274	     -0.31081982	      1.07441738	      0.34506452	     12.73925428	      0.95791674	      1.96678718	    -15.56146718	     10.55691189	     -5.13651314	      4.48595879	     31.94868202	     -3.26626334	     -5.75031592	    -60.63525340	     12.47276793	     11.37658243	      1.89255191	     -6.55139977	      1.50377134	      4.90828786
      0.81216667	     -7.16078489	      3.23439498	     -1.62596365	     -0.30586992	      1.07464136	      0.34550542	     12.36239957	      0.90129233	      2.09715669	    -15.30150501	     10.66469391	     -5.11545023	      4.46523812	     32.27768538	     -3.24392762	     -5.83357932	    -59.69754889	     12.42669471	     11.11931361	      1.88731768	     -6.51756822	      1.38452874	      5.01273673
      0.81633333	     -7.17138355	      3.31034858	     -1.74983309	     -0.30094343	      1.07485638	      0.34591278	     11.97045291	      0.84339132	      2.21798899	    -15.04319213	     10.77600685	     -5.08985278	      4.44252282	     32.57897621	     -3.21469855	     -5.90194149	    -58.73356934	     12.36539267	     10.83564843	      1.87945569	     -6.50605452	      1.27066080	      5.10902756
      0.82050000	     -7.17223157	      3.38290659	     -1.86765588	     -0.29602416	      1.07505266	      0.34629562	     11.56933453	      0.78447621	      2.32901438	    -14.78828380	     10.88930477	     -5.05646292	      4.42149679	     32.85683471	     -3.18018519	     -5.95596930	    -57.74143637	     12.28999518	     10.53827292	      1.86939279	     -6.51179000	      1.16223812	      5.18308610
